<?xml version="1.0" encoding="UTF-8" standalone="no"?>
<svg id="svg2" xmlns:rdf="http://www.w3.org/1999/02/22-rdf-syntax-ns#" xmlns="http://www.w3.org/2000/svg" height="700" width="700" version="1.1" xmlns:cc="http://creativecommons.org/ns#" xmlns:dc="http://purl.org/dc/elements/1.1/">
 <metadata id="metadata48">
  <rdf:RDF>
   <cc:Work rdf:about="">
    <dc:format>image/svg+xml</dc:format>
    <dc:type rdf:resource="http://purl.org/dc/dcmitype/StillImage"/>
    <dc:title/>
   </cc:Work>
  </rdf:RDF>
 </metadata>
 <g id="1" transform="matrix(8.7524 0 0 8.7524 -27307 1.5276e5)" stroke="#000" stroke-width=".23158" class="black" fill="#fff">
  <title id="title4230">Circoscrizione 1</title>
  <path id="path6" d="m3151.7-17402 0.1116 0.118 1.4146 0.686h0.01l0.3029 0.02 0.2718 0.111 0.2911 0.246 0.4212 0.344 0.065 0.04 0.9031 0.772 0.645 0.549 0.019 0.01 0.065 0.04 0.078-0.172 0.041-0.09 0.048-0.103 0.057-0.122 0.4003-0.921 0.3057-0.699 0.391-0.879 0.5951-1.335 0.044-0.112 0.1196-0.227 0.2103-0.468-0.01-0.05 0.097 0.05 0.07-0.111h-0.011l0.043-0.08 0.1592-0.247 0.2784-0.3 0.022-0.04 0.5469-1.06 0.1621 0.06 0.081-0.295 0.1062-0.283 0.2386-0.457 0.2108-0.409 0.1563-0.321 0.2087-0.38 0.2174 0.111 0.2784 0.142 0.2407 0.122 0.1418 0.07 0.4025 0.205 0.3899 0.199 0.4789 0.244 0.5411 0.274 0.1524 0.07 0.3535 0.179 0.5147 0.265 0.2132 0.116 0.2075 0.107 0.022-0.05 0.5401-0.929 0.3512-0.536 0.3916-0.518 0.078-0.104 0.5181-0.535 0.018-0.02 0.021-0.02 0.2239-0.231 0.4863-0.498-0.16-0.216h-0.08l-0.049-0.07-0.2103-0.301-0.033-0.05-0.236-0.338-0.2013-0.289-0.1966-0.282-0.1362-0.196-0.09-0.129-0.1816-0.261-0.2119-0.303-0.057-0.08-0.1311-0.188-0.4175-0.597-0.3486-0.494-0.1184-0.164-0.1449-0.2-0.2093-0.289-0.172-0.271-0.026-0.04-0.013-0.02-0.022-0.03-0.604-0.283-0.3261-0.153-0.2237-0.104-0.2774-0.131-0.2516-0.118-0.1249 0.271-0.1699 0.06-0.046 0.02h-0.034l-0.1471-0.07-0.1172 0.255-0.085-0.04-0.026-0.01-0.025-0.01-0.087-0.04 0.059-0.128 0.01-0.02 0.01-0.02 0.046-0.1-0.029-0.01-0.093-0.04-0.034-0.02-0.02-0.02-0.077-0.224 0.077-0.152 0.049-0.104 0.01-0.02-0.5492-0.233-0.4503-0.211-0.7453-0.35-0.2304-0.108-0.1537-0.07-0.1902-0.09-0.049-0.02-0.225-0.106-0.127-0.06-0.2667-0.125-0.07-0.03-0.693-0.322-0.037-0.02-0.064-0.03-0.1539 0.31-0.096 0.195-0.1835 0.369-0.1422 0.287-0.099 0.198-0.042 0.08-0.1077 0.198-0.124 0.229-0.1031 0.189-0.026 0.05h-0.039l-0.052 0.05-0.1813 0.367 0.062 0.03-0.066 0.129-0.033 0.08-0.042 0.09-0.011 0.02-0.1087 0.211-0.071 0.141v0.07l-0.1326 0.266-0.032 0.06-0.025 0.05-0.1529 0.305-0.184 0.39-0.024 0.04-0.2263 0.446-0.1988 0.399-0.017 0.02-0.022 0.03-0.1052 0.207-0.033 0.05-0.2371 0.481 0.1141 0.06 0.05 0.03-0.042 0.08h-0.101l-0.1266 0.259-0.1207 0.233-0.04 0.08-0.017 0.03-0.1245 0.269-0.011 0.03-0.015 0.07-0.024 0.06-0.097 0.13-0.1641 0.318-0.3035 0.626-0.011 0.09-0.028 0.104-0.02 0.05-0.039 0.06-0.062 0.07-0.051 0.05-0.053 0.09-0.3435 0.69-0.02 0.04-0.041 0.09-0.1226 0.256-0.1382 0.282-0.088 0.183-0.069 0.132-0.1018 0.203-0.1159 0.236-0.2244 0.456 0.046 0.03-0.014 0.01-0.015 0.03-0.081 0.187-0.025 0.05-0.011 0.03-0.026 0.08-0.025 0.07-0.03 0.08-0.023 0.141-0.027 0.175-0.02 0.127-0.021 0.132v0.183l0.01 0.05 0.015 0.164v0.01l0.019 0.152v0.03l0.051 0.197 0.045 0.135 0.035 0.09 0.2089 0.379-0.2065 0.395-0.055 0.106-0.031 0.06z" stroke="#000" stroke-width=".23158" fill="#fff"/>
 </g>
 <g id="2">
  <title id="title4161">Circoscrizione 2</title>
  <path id="path10" d="m192.44 412.32-0.19336 0.69921-1.1348 3.8516-1.3301 4.5176-0.75977 2.5723-1.5078 4.3945v0.0859l-0.0879 0.17578-2.0879 6.2051-1.7168 0.78906-1.8828 0.78711-2.25 1.5742-0.56055 0.52539-1.2812 1.2969-0.20117 0.26171-0.35156 0.52539-0.83985 1.2246-1.3965 1.75-3.3125 3.3086-0.15625 0.17578-2.5879 2.0566 4.1387 2.625 0.19141 0.0879-2.668 6.7129 1.625 1.0156 0.4375 0.26367 0.85742 0.4375 1.7441 0.78711h0.13086l1.3965 0.0879h0.28907 0.13281 0.0859 0.28125 0.17382 0.15821l0.45508 0.0879 0.56835 0.0859 0.41993 0.17578 1.4199 0.61328-1.0703 2.3008-1.5449 3.3359h-0.42968l-2.6406-1.0606-1.2676 0.70117-1.041 1.0586-1.3145 2.416 0.75196 0.61328v0.0859l-1.543 5.7695-0.81445 3.1406-0.44532 2.5996-0.10547 0.4375-0.11328 0.4375-1.6152 4.4551-1.0566 3.0371-0.0879 0.0879-0.20117 0.4375-0.64844-0.34961-0.82227-0.4375-1.0644-0.52539-0.1582-0.26171-0.16602-0.5254-2.3438-1.5332-0.45508-0.0859-0.65625 1.6445-0.18359 1.0684-0.72656 2.2148-4.5938 13.137-2.2461 6.3359-6.5801-3.9688-3.0625-1.541-1.3984-0.69922-0.79688-0.26172-0.32422-0.17578-2.3203-0.875h-0.10547l-4.1074-2.8633-1.0586-0.875-1.0723-0.78711-3.6465-2.4766-9.8945-6.7402-1.748-0.92773-1.2715-0.78711-1.1758-0.70117-1.4922-0.94531-3.918-1.0762-0.48047-0.0879-1.5156-0.78711-3.0469-1.8203-2.6094-1.6191-4.0039-2.5547-1.0957-0.70117-0.29-0.47v-1.2695l-0.09766-0.61133-2.2188-1.5762-4.3711-2.8887-2.502-1.4961-8.8223-5.8301-3.1406 4.377-5.3867 7.6152-0.46484-0.35156-2.3125-1.8809-0.61133-0.4375-0.96094-0.78906-0.70117-0.69922h-0.20898l-0.13086-0.0879 0.26172-2.2051-0.0059-0.17578-0.08789-0.17383-0.17383-0.17578-1.5586-0.69922-0.83008-0.43945h-0.44726l-0.12305 0.26367-2.6953-1.5762-7.409 9.95 6.9766 9.5488 2.2754 4.543 0.63086 1.2598 4.9609 3.8164 0.58789 0.4375 2.0391 3.1856-0.13086 0.17578 1.9492 1.5664 0.42188 0.26368 4.123 2.4141 0.64844 0.43945 4.5488 2.5469 1.9766 1.1289 1.7637 0.52539 0.79688 0.26172 0.67383 0.26172 1.9785 1.209 3.4121 2.4414 5.4473 3.3691 0.0957 0.0879 3.9844 2.5293 2.1934 1.9863 3.1016 2.3555 6.3965 4.9883 1.0352 0.26367 1.1211-0.0879 1.0645-0.52539 8.4238 7.5098 5.4395-1.9688 8.4316-3.0547 3.8184-1.3828-2.2402 5.3301-2.623 5.959-2.6133 5.8555-3.8125 8.7266-1.3926 3.248-2.7109 6.0566-5.498 12.385-8.748-2.0488-4.0781-0.88476-4.9688-1.1016-0.72656-0.17578h-0.56836-0.75391l-1.9258-0.52539-2.127-0.0879-2.2461 0.78906-0.3418 1.2871v0.34961l0.14844 1.9688 1.2012 5.5137 0.34961 1.6016-2.5742 1.2168-5.457 2.5918 2.3066 0.93555 0.89258 0.34961 0.34961 0.17578 1.9141 2.8789 2.6035 3.6074 2.209 2.2402 3.0801-0.17578 1.6445-1.6016 0.24609-0.69922 0.36719-0.97266 0.17578-0.4375 1.2988-0.17578h0.36718l1.8867 0.98047 1.6797 0.875 0.15625 0.43945 0.57813 1.5391-1.5274 4.1484-0.68164 2.5293 0.75977 1.2168 0.78906 0.35156 4.7969 0.4375 1.8145-2.0742 1.002-0.87695 0.89648-0.78711 0.49024-0.4375 4.5195-1.9082 4.6309 0.97266 2.3633 2.0039 3.5527 1.9688 0.21876 0.0879 3.9141 2.3106h0.0879l0.58594 0.69921 1.4004 1.6992 1.8457 0.52539 0.64844 0.17383h0.42968 1.498l0.79688 1.0332 0.70898 0.91016 0.96289 1.252 0.76953 0.99805 0.36914 0.26172 2.582 1.1289 1.2871-0.0879 0.27149-0.0859 1.0352-0.52539 1.2871-0.61328 1.2344-0.61329 5.1387-2.5195 1.6074-1.1289 1.3203-0.34961 0.78711 0.4375 1.8477 1.0137h0.18359l0.56055 0.17578 0.5332 0.17578 1.8692 0.26172 2.8672 1.1465 0.67578 0.17579 2.209 0.52539 2.0996 1.2168 3.498 2.4062 0.61133 0.4375 0.71875 0.4375 2.8125 1.6895h0.13086l3.7774 1.627 1.1543 0.52539 1.8008 0.4375 1.7637 0.4375 3.166 0.17578h4.0352l3.2168-0.98828 1.041-2.0918 0.25391-1.3144 1.4434-1.7148 0.40234-0.52539 1.3008-3.168h0.99805 0.76172l3.75-0.0879h2.1406l2.2129 0.26367 0.73438 0.17383 3.1855 0.78906 2.9629 2.2129 0.51563 0.52539 5.207 5.4531 0.78711 0.4375h0.20117l1.3574-0.34961 0.41993-0.52539 0.17578-0.17579 0.17383-0.17382 1.8203-2.1191 0.6914-0.26172 2.4961 0.4375 2.0039 1.0156 1.1602 0.61133 1.1191 0.78906 0.66406 1.2344 0.57813 1.0762 1.0059 1.873 1.8887 0.69921 1.8379 0.70118h0.89453l3.5566 0.26172 1.6524 0.52539 0.49023-1.0684h0.12305l0.45508 0.17578 1.9199 0.0879h0.31445l0.45508-0.26367 0.52539-0.34961 0.46289-0.17578 0.81445 0.4375 0.85742-0.52344 1.2793-1.5586 1.6992-0.70117 0.21094-0.17383 0.39258-0.0879 0.44726-0.26171 1.0606-0.26368 2.7324-0.34961 2.3047 0.34961 0.83984-0.52539 1.0859-0.69922 0.14844-0.0879 0.20117-0.0879h0.10547 0.0879l0.12109-0.0879h0.0879l0.41211-0.34961 0.41016-0.34961 0.12304-0.0879 0.13086-0.0879 0.38672-0.34961 0.32227-0.26172h0.0879l0.55078-0.0879h0.27148 0.20118l0.29882-0.17578h0.0879l0.59374-0.34961h0.51758l0.35742 0.0879h0.10547l0.13086 0.17383 0.12305 0.17578 0.24609 0.34961v0.26367 0.34961 0.26172 0.26367h0.002v0.26172 0.17578 0.26172 0.17578l0.0879 0.17579 0.17578 0.4375 2.2695 0.52343 0.39453-0.0859h0.13086 0.0957 0.0879 0.2461 0.375 0.82226 0.11524l0.20898 0.0859 0.19336 0.0879h0.13086 0.13086l0.35156 0.17578 0.24414 0.26172 0.31446 0.4375 0.41992 0.35157 1.2168 1.041 0.94335-3.1777 0.26954-0.90039 0.64843-2.1895 0.0879-0.26172 0.0879-0.17578v-0.0879l2.0859-6.9492 0.81446-2.8613 1.0684-3.7363 1.2578-4.3691 1.4394-4.5508 0.73438-2.3281 1.6523-5.4609 0.48047-1.5938-1.1504-4.6113-0.20899-0.875-0.0879-0.26368-0.14843-0.52539-0.67383-2.9394-0.42969-2.5469-0.14063-1.8223-2.4316-0.88281-1.6328-0.52539-0.54297-0.17578-5.709-2.8613-5.7051-2.8613-3.5234-1.7695-0.5332-0.26172-2.9316-1.4707-3.6191 9.4785-1.8887 4.6562-1.5488 3.834-0.15821 0.96289h-0.48242l-3.0938-0.91016-3.8984-1.1387-2.6856-0.78711-3.5117-1.2246-0.51758-0.4375-5.0234-5.4277-2.4316-2.625-1.9062-2.0566-0.6914-0.7871-0.42774-0.17579-4.4473-2.2051-0.44727-0.26368-3.8516-1.8984-3.4199-1.6992-2.8574-1.3477 2.7246-2.4062 0.62304-0.70117 1.4102-1.8281 1.1074-1.3828 1.8691-2.459 3.9551-4.8398 2.4746-3.2051 2.0859-2.6328 2.0391-2.5488 2.1523-2.7031 3.0039-3.9121-0.20313-0.43555 2.9434-3.7617 3.2949-4.1582 2.8281-3.4219 0.75195-0.69922 2.916-3.7383 1.6856-2.1524 1.6973-2.1797 2.6973-3.457 3.3809-4.332 2.2226-2.8535 5.2305-6.7051 0.79688-0.98047 0.86718-1.1543 1.25-1.5938 2.7344-3.4648 0.40234-0.52539 1.4062-1.7773 2.1328-2.7227 0.1211-0.17383 0.39453-0.4375 4.4199-5.5762 7.5781-9.5664 2.4219-3.0625 3.332-4.2012-0.56836-0.35156-3.6875-3.0098-2.5469-2.1523-2.3789-0.97266-2.6504-0.17382h-0.0879l-12.381-6.0059-0.97656-1.0312 3.1582-6.4082 0.27149-0.52539 0.48242-0.92773 1.8066-3.457-1.8281-3.3164-1.1152-0.34961-1.0371-0.35156-2.4375-0.78711-2.2363-0.69922-2.7891-0.91016-2.2617-0.78906-3.3555-1.1016-2.8398-0.9375-0.70899 1.0508-1.0684 0.34961-1.6074 0.4375-1.5527 0.35156-1.582 0.26172-2.0977 0.26172-1.9004 0.17578h-2.2988-1.5723l-3.0371-0.17578-4.5508-0.61133-0.12305 0.4375-1.9316-0.61328-7.123-2.0664-1.9961-0.61132-2.7188-0.78711-3.5977-1.0508-3.6367-1.0586-0.76172-0.26367-0.78711-0.26172-0.65625-0.17578-3.0976-0.78711h-0.21875l-9.2852-2.25-0.35937-0.0879-2.9082-0.875-3.2148-0.92773-7.5312-2.2051-1.6816-0.52539z" stroke="#000" stroke-width="2.0269" fill="#fff"/>
 </g>
 <g id="3" transform="matrix(8.7524,0,0,8.7524,-27305,152760)" stroke="#000" stroke-width=".23158" class="black" fill="#fff">
  <title id="title4300">Circoscrizione 3</title>
  <path id="path11" stroke="#000" stroke-width=".23158" fill="#fff" d="m3134.2-17413-0.059 0.122h0.1514l0.1731 0.03 0.1162 0.02 0.1178 0.03 0.033 0.01 0.028 0.01 0.2834 0.06 0.1939 0.01 0.1188 0.03 0.04 0.02 0.026 0.01 0.227 0.07 0.036 0.02h0.024l0.157 0.05h0.01l0.017 0.04 0.061 0.218 0.1002 0.341 0.1025 0.323 0.014 0.05 0.023 0.05 0.0004 0.03 0.01 0.02 0.037 0.06 0.021 0.01h0.017l0.04 0.02 0.032 0.01 0.545 0.298h0.012l0.024 0.01 0.034 0.02 0.032 0.02 0.2212 0.09 0.047 0.02 0.027 0.01 0.128 0.05 0.069 0.05v-0.01l0.021 0.02h0.023l0.022 0.02 0.057 0.04 0.042 0.03 0.046 0.05 0.029 0.05 0.032 0.02 0.032 0.02 0.036 0.02 0.031 0.01v0.02h-0.021l-0.031 0.01-0.3474 0.153-0.5623 0.139h-0.039l-0.074 0.03-0.282 0.132-0.043 0.01-0.2616 0.08v0.02l-0.1394 0.495-0.031 0.111-0.4411 1.568v0.02l0.1782 0.05 0.2908 0.08 0.2923 0.08 0.018-0.03 0.099-0.145 0.047-0.03h0.086l0.1448 0.05 0.2308 0.06 0.1321 0.01 0.076 0.01 0.2038 0.06 0.088 0.04 0.2276 0.08 0.05 0.03 0.4524 0.194 0.2077 0.08h0.1652l0.1476 0.02 0.087 0.02 0.6181 0.09 0.051-0.01h0.015l0.2964-0.1 0.049-0.02 0.154-0.06h0.3204l0.3372-0.02 0.3574-0.03 0.3511-0.05 0.3296-0.05 0.078 0.978 0.0008 0.01-0.07 0.08-0.01 0.03 0.1921 0.06 0.8605 0.252 0.3674 0.106 0.3322 0.1 0.041 0.01 1.061 0.257h0.025l0.3538 0.09 0.075 0.02 0.09 0.03 0.087 0.03 0.4155 0.121 0.4111 0.12 0.3105 0.09 0.2282 0.07 0.8137 0.236 0.2209 0.07 0.014-0.05 0.5198 0.07 0.3472 0.02h0.4423l0.2171-0.02 0.2397-0.03 0.1807-0.03 0.1773-0.04 0.1838-0.05 0.122-0.04 0.081-0.12 0.3244 0.107 0.3834 0.126 0.2584 0.09 0.3188 0.104 0.2554 0.08 0.2785 0.09 0.1186 0.04 0.1273 0.04-0.035-0.09-0.045-0.135-0.051-0.197v-0.03l-0.019-0.152v-0.01l-0.015-0.164-0.01-0.05v-0.183l0.021-0.132 0.02-0.127 0.027-0.175 0.023-0.141 0.03-0.08 0.025-0.07 0.026-0.08 0.011-0.03 0.025-0.05 0.081-0.187 0.015-0.03 0.014-0.01-0.046-0.03 0.2244-0.456 0.1159-0.236 0.1018-0.203 0.069-0.132 0.088-0.183 0.1382-0.282 0.1226-0.256 0.041-0.09 0.02-0.04 0.3435-0.69 0.053-0.09 0.051-0.05 0.062-0.07 0.039-0.06 0.02-0.05 0.028-0.104 0.011-0.09 0.3035-0.626 0.1641-0.318 0.097-0.13 0.024-0.06 0.015-0.07 0.011-0.03 0.1245-0.269 0.017-0.03 0.04-0.08 0.1207-0.233 0.1266-0.259h0.101l0.042-0.08-0.05-0.03-0.1141-0.06 0.2371-0.481 0.033-0.05 0.1052-0.207 0.022-0.03 0.017-0.02 0.1988-0.399 0.2263-0.446 0.024-0.04 0.184-0.39 0.1529-0.305 0.025-0.05 0.032-0.06 0.1326-0.266v-0.07l0.071-0.141 0.1087-0.211 0.011-0.02 0.042-0.09 0.033-0.08 0.066-0.129-0.062-0.03 0.1813-0.367 0.052-0.05-0.4746 0.03-0.4044 0.02-0.2253 0.01h-0.1568l-0.3244 0.02-0.1746 0.01-0.2735 0.01-0.3933 0.02-0.4356 0.02-0.4594 0.03-0.3164 0.02-0.1947 0.01-0.3128 0.02-0.4145 0.02-0.3708 0.02-0.4378 0.02-0.2339 0.01-0.4849 0.03-0.2305 0.01-0.3243 0.02-0.1779 0.01-0.1833 0.01h-0.09l-0.2527 0.01-0.3075 0.02-0.6124 0.03-0.3945 0.02h-0.3682l-0.75 0.04-0.2699 0.01-0.5318 0.03-0.4663 0.03-0.3065 0.02-0.3446 0.02-0.2575 0.01-0.2207 0.01-0.2373 0.01h-0.096l-0.3464 0.02-0.4458 0.03-0.4143 0.02-0.6308 0.04-1.0455 0.06-0.6618 0.04-0.2503 0.01-0.3346 0.02-0.3082 0.02-0.3028 0.02h-0.048l-0.2732 0.02h-0.018l-1.1237 0.06-0.1998 0.01-1.0633 0.06-0.2966 0.02-0.3021 0.02-0.2825 0.02h-0.2726l-0.2773 0.02-0.2507 0.01-0.1708 0.01-0.01 0.02-0.032 0.06-0.3987 0.752-0.018 0.03z"/>
 </g>
 <g id="5" transform="matrix(8.7524 0 0 8.7524 -27307 1.5276e5)" stroke="#000" stroke-width=".23158" class="black" fill="#fff">
  <title id="title4224">Circoscrizione 5</title>
  <path id="path18" d="m3137-17430 0.2417 0.996 0.3001 1.237 0.049 0.177 0.065 0.234v0.03l0.2024 0.848 0.065 0.141 0.1189 0.123h0.01l0.7406-0.148 0.7573 0.423 0.5132 0.288 0.8061 0.452 0.1345 0.07 0.8033 0.449 0.2997 0.167 1.4798 0.827 0.6146 0.343 0.6224 0.292 0.6979 0.327 2.5937 1.215 0.7321 0.343 1.687 0.788 0.2284 0.107 0.1138 0.05 0.095-0.197 0.033-0.07 0.1769-0.376 0.243-0.512 0.1411-0.301 0.1142-0.239 0.016-0.03 0.084-0.18 0.093-0.196 0.027-0.05 0.155 0.148 0.027-0.05 0.3435-0.03 0.3079-0.03 0.1363-0.01 0.2474-0.02 1.4914-0.129h0.2353l0.01 0.112h0.054l0.048 0.01 0.5294 0.104 0.6177 0.12 0.3263 0.06 0.1406 0.03 0.5194 0.1 0.365 0.1 0.2025-0.03 0.4798 0.09 1.5463 0.299 0.4088 0.181 0.1227-0.127 0.137-0.14v-0.112l0.029-0.06 0.1777-0.195 0.033-0.05 0.012-0.03 0.01-0.03v-0.04l-0.011-0.05-0.034-0.04-0.052-0.04-0.072-0.04 0.2475-0.451 0.1529-0.227 0.253-0.374 0.1127-0.167 0.1862-0.245 0.402-0.529 0.2364-0.311 0.2873-0.378 0.273-0.359 0.2557-0.337 0.016-0.02 0.4168-0.435 0.4145-0.556 0.8068-1.095 0.2769-0.376 0.1372-0.186 0.052-0.09 0.082-0.135 0.074-0.121 0.033-0.04 0.1458-0.189 0.101-0.131 0.019-0.03 0.02-0.03 0.5026-0.715 0.03-0.05 0.1692-0.329 0.2495-0.485 0.2186-0.571 0.075-0.191 0.06-0.235 0.05-0.222 0.019-0.126 0.036-0.233 0.1034-0.81 0.027-0.201 0.039-0.205 0.01-0.03h-0.2569l-0.4838 0.05h-0.111l-0.1792 0.01-0.1481-0.02-0.2024-0.05-0.1679-0.02-0.1553-0.04-0.096-0.04-0.091-0.05-0.4237-0.11-0.1625-0.06-0.1466-0.1-0.058-0.05-0.09-0.19-0.176-0.157-0.443-0.312-0.3383-0.346-0.2206-0.102-0.1683-0.03-0.1361 0.02-0.3578 0.14-0.1544 0.08-0.2207 0.07-0.2353 0.04-0.2478-0.03-0.2709-0.05h-0.705l-0.1455-0.03-0.1321-0.08-0.1879-0.188-0.066-0.151-0.2025-0.163-0.058-0.06 0.1588-0.392-0.1701-0.207-0.2401-0.289-0.2668-0.345-0.1267-0.183-0.3083-0.438-0.162-0.231-0.1537-0.127-0.1737 0.122-0.389 0.129-0.2897 0.103-0.2842 0.111-0.2452 0.05-0.1723 0.1-0.1564 0.156-0.1752 0.13-0.229 0.158-0.3713 0.208-0.367 0.16-0.2557 0.06-0.2055 0.01-0.3748-0.101-0.575-0.105h-0.084l-0.1449-0.03-0.1358-0.08-0.4132-0.232-0.2263-0.17-0.2415-0.236-0.2475-0.245-0.2629-0.24-0.4397-0.633-0.086-0.07-0.1567-0.286-0.027 0.04-0.1334 0.214-0.025 0.03-0.021 0.03-0.3457 0.308 0.023 0.329 0.012 0.704v0.198l0.01 0.167 0.018 0.286 0.028 0.692 0.01 0.209 0.0008 0.04 0.0001 0.04 0.022 0.361 0.02 0.378 0.1216 0.16 0.011 0.01 0.03 0.04 0.2012 0.257 0.091 0.117 0.1101 0.14-0.045 0.04-0.012 0.997-0.2603 0.05-1.0947 0.223-0.2373 0.05h-0.7841l-0.1353 0.02-0.2539 0.05h-0.2348l-0.1822-0.02-0.5424-0.05-1.6224-0.163h-0.057l-0.3892-0.04-1.2431-0.135-1.6201-0.212-0.098-0.01-0.152-0.02-0.3987-0.04h-0.064l-0.1314-0.01-0.2981-0.02-0.4082-0.05-0.2611-0.03-0.2316-0.02-0.3265-0.03-0.051 0.06-0.018 0.03-0.032 0.06-0.01 0.05 0.0008 0.656 0.01 0.928v0.03l-0.01 0.07v0.04l0.01 0.187 0.01 0.36 0.014 0.132h-0.031v0.05l-0.1911 0.05-0.03 0.01h-0.01l-0.072 0.02-0.063 0.01-0.07 0.02h-0.079l-0.052 0.01h-0.01l-0.1379 0.03h-0.016l-0.1262 0.03h-0.042l-0.054-0.02h-0.08l-0.079-0.01-0.097-0.03h-0.067l-0.045-0.03-0.039-0.01h-0.9993l-0.029-0.02h-0.012l-0.514 0.04h-0.07v0.01h-0.0007 0.0001l-0.01 0.01-0.01 0.01-0.2383 0.104-0.2598 0.158z" stroke="#000" stroke-width=".23158" fill="#fff"/>
 </g>
 <g id="6" transform="matrix(8.7524,0,0,8.7524,-27307,152762)" stroke="#000" stroke-width=".23158" class="black" fill="#fff">
  <title id="title4218">Circoscrizione 6</title>
  <path id="path22" stroke="#000" stroke-width=".23158" fill="#fff" d="m3151.4-17444v0.01l0.053 0.07 0.035 0.02 0.035 0.03h0.01l0.041 0.02 0.01 0.04 0.031 0.02 0.033 0.03 0.033 0.01 0.035 0.04 0.036 0.03 0.045 0.06 0.04 0.02h0.012l0.01 0.01 0.01 0.01 0.01 0.01 0.028 0.05 0.068 0.05 0.029 0.04 0.042 0.02 0.047 0.06 0.057 0.05 0.01 0.01 0.019 0.03 0.057 0.03 0.051 0.03 0.052 0.04h0.074l-0.4883 0.887 0.3427 0.496-0.05 0.07-0.1136 0.16 0.022 0.03-0.1079 0.199 0.2513 0.21 0.15-0.253 0.1138 0.102 0.032 0.04 0.1741 0.205 0.1537 0.376v0.209l-0.2883 0.453-0.5686 0.896-0.082 0.131-0.08 0.128 0.1567 0.286 0.086 0.07 0.4397 0.633 0.2629 0.24 0.2475 0.245 0.2415 0.236 0.2263 0.17 0.4132 0.232 0.1358 0.08 0.1449 0.03h0.084l0.575 0.105 0.3748 0.101 0.2055-0.01 0.2557-0.06 0.367-0.16 0.3713-0.208 0.229-0.158 0.1752-0.13 0.1564-0.156 0.1723-0.1 0.2452-0.05 0.2842-0.111 0.2897-0.103 0.389-0.129 0.1737-0.122 0.1537 0.127 0.162 0.231 0.3083 0.438 0.1267 0.183 0.2668 0.345 0.2401 0.289 0.1701 0.207-0.1588 0.392 0.058 0.06 0.2025 0.163 0.066 0.151 0.1879 0.188 0.1321 0.08 0.1455 0.03h0.705l0.2709 0.05 0.2478 0.03 0.2353-0.04 0.2207-0.07 0.1544-0.08 0.3578-0.14 0.1361-0.02 0.1683 0.03 0.2206 0.102 0.3383 0.346 0.443 0.312 0.176 0.157 0.09 0.19 0.058 0.05 0.1466 0.1 0.1625 0.06 0.4237 0.11 0.091 0.05 0.096 0.04 0.1553 0.04 0.1679 0.02 0.2024 0.05 0.1481 0.02 0.1792-0.01h0.111l0.4838-0.05h0.2569l-0.01 0.03-0.039 0.205-0.027 0.201-0.1034 0.81-0.036 0.233-0.019 0.126-0.05 0.222-0.06 0.235-0.075 0.191-0.2186 0.571-0.2495 0.485-0.1692 0.329-0.03 0.05-0.5026 0.715-0.02 0.03-0.019 0.03-0.101 0.131-0.1458 0.189-0.033 0.04-0.074 0.121-0.082 0.135-0.052 0.09-0.1372 0.186-0.2769 0.376-0.8068 1.095-0.4145 0.556-0.4168 0.435-0.016 0.02-0.2557 0.337-0.273 0.359-0.2873 0.378-0.2364 0.311-0.402 0.529-0.1862 0.245-0.1127 0.167-0.253 0.374-0.1529 0.227-0.2475 0.451 0.072 0.04 0.052 0.04 0.034 0.04 0.011 0.05v0.04l-0.01 0.03-0.012 0.03-0.033 0.05-0.1777 0.195-0.029 0.06v0.112l0.3173 0.05 0.3304 0.06 0.1396 0.02 0.094 0.01 0.452 0.08 0.4202 0.07 0.6004 0.1 0.4043 0.07 0.3888 0.06 0.2165 0.03 0.1511 0.09 0.039 0.03 0.1819 0.123 0.3516 0.238 0.09 0.07 0.073 0.06 0.1058 0.07 0.09 0.07 0.1328 0.104 0.092 0.07 0.099 0.08 0.305 0.238 0.1439 0.112 0.3848 0.305 0.2606 0.205 0.063 0.04 0.058 0.06 0.032 0.05 0.051 0.08 0.2067 0.323 0.2623 0.413 0.1317 0.209 0.1436 0.228 0.2711 0.429 0.097 0.153 0.096 0.149 0.03 0.05 0.3736 0.596 1.6238-1.017 1.9195-1.217 0.053-0.04 0.028-0.04h0.077l0.6475-0.412 0.019-0.01 0.1469-0.09 0.3107-0.28 0.8335-0.851 0.6647-0.685h0.091l0.3173 0.03 0.045-0.321 0.1662-0.691 0.044-0.1 0.099-0.224 0.053-0.121 0.264-0.367 0.48-0.53 0.4154-0.194 0.5047-0.05 0.5199 0.134 0.6756 0.359 0.045 0.02 0.072 0.03 1.3597 0.676 0.9017 0.294h0.2819l0.295 0.01h0.5609l0.3386-0.02 0.3678-0.13 0.3698-0.25-0.1419-0.158-0.1477-0.161 0.404-0.243 1.0573-0.635 0.7127-0.513 1.083-0.933 0.1313-0.649v-0.437l0.01-0.325v-0.15l0.3499-1.084-0.1092-0.07-0.2667-0.155-0.055-0.04-0.2128-0.131-0.1086-0.06-0.3713-0.225-0.1919-0.104-0.2132-0.13-0.1025-0.08-0.1093-0.09-0.06-0.06-0.039-0.05h-0.01l-0.081-0.09-0.1526-0.168-0.1212-0.107-0.1074-0.08-0.1492-0.08h-0.01l-0.4774-0.3 0.1302-0.292 0.011-0.03-0.014-0.111-0.1553-0.289h-0.011l-0.05-0.03-0.079-0.05-0.047-0.04-0.049-0.04-0.092-0.08-0.098-0.07-0.028-0.02-0.079-0.06h-0.022l-0.039-0.02-0.092-0.06h-0.017l-0.044-0.03-0.029-0.04-0.01-0.01-0.039-0.02-0.072-0.01-0.1316-0.01h-0.076l-0.1014-0.02h-0.1537l0.045-0.08 0.0004-0.03-0.021-0.03-0.064-0.04v-0.01l0.018-0.03 0.048-0.03 0.032-0.01-0.072-0.515-0.01-0.853-0.0003-0.03-0.046-0.04-0.062-0.04-0.035-0.02-0.1449-0.01-0.098 0.02-0.3152 0.129-0.074 0.02-0.1304 0.05h-0.018l-0.091-0.04-0.1217-0.05-0.02-0.01-0.0006-0.01 0.01-0.06 0.012-0.07v-0.05l0.1065-1.987 0.3915-0.349 0.1424-0.127 0.02-0.142 0.01-0.183-0.025-0.157-1.0251-0.155-0.1585-0.02 0.2826-1.218 0.092-0.05 0.024-0.04-0.01-0.02 0.098-0.426 0.055-0.135-0.035-0.06-0.2853-0.09-0.1408-0.03-0.061 0.02h-0.072l-0.1556 0.02-0.022 0.02-0.081-0.04-0.1-0.03h-0.1129l-0.1698 0.04-0.211 0.04h-0.06l-0.2652-0.07-0.1151 0.02-0.2262 0.07-0.06-0.01-0.1066-0.08-0.091-0.04-0.026-0.04-0.17-0.05-0.043-0.01-0.036-0.03-0.01-0.01h-0.041l-0.027-0.03 0.038-0.05 0.097-0.122 0.095-0.116 0.038-0.17-0.5799-0.317-0.2989-0.16-0.076-0.05-0.043-0.03-0.1692-0.09v-0.02l-0.4801-0.201h-0.072l-0.084 0.03-0.7143 0.322-0.3619 0.569h-0.047l-0.1873-0.216-0.4134-0.503-0.1119-0.09-0.1517-0.06-0.1094-0.05-0.3836-0.164 0.1427-0.743h-0.01l0.025-0.06 0.051-0.263 0.015-0.1 0.036-0.176 0.01-0.08 0.025-0.1-0.012-0.02-0.029-0.03 0.1066-0.02h0.6069l0.089 0.02h0.1866l0.015-0.06-0.01-0.05 0.011-0.09 0.088-0.214 0.5626-0.13-0.01-0.398 0.024-0.195 0.1909 0.05 0.093-0.554 0.047-0.191 0.1115-0.601 0.125-0.03 0.036-0.146 0.058-0.466-0.02-0.03h-0.03l-0.013-0.01-0.025-0.03-0.048-0.04-0.096-0.03v-0.02l-0.054-0.04-0.071-0.02h-0.047l-0.026 0.03-0.011 0.05-0.014 0.01h-0.102l-0.044 0.02-0.029 0.02-0.063-0.01-0.031-0.02-0.05-0.02-0.021-0.02h-0.037l-0.03 0.01h-0.026l-0.024-0.02-0.01-0.02v-0.05l-0.079-0.03-0.02-0.02-0.01-0.01-0.07-0.05-0.012 0.03h-0.028l-0.053-0.02-0.051-0.02-0.01-0.02-0.042-0.02-0.032-0.03-0.032-0.01h-0.01l-0.039-0.04h-0.064l-0.04-0.02-0.057-0.02 0.0008-0.09-0.1-0.04-0.05-0.03h-0.033l-0.019-0.02h-0.039l-0.015 0.01-0.015 0.02-0.025 0.05-0.031 0.01h-0.048l-0.024 0.03-0.027 0.02-0.078-0.02-0.025-0.02-0.081-0.06h-0.076l-0.065-0.05h-0.031l-0.019 0.02v0.04h-0.038l-0.061 0.02h-0.054v-0.07h-0.079l-0.11-0.01-0.1169-0.01-0.052 0.03h-0.016l-0.023 0.06-0.046 0.08-0.064 0.03h-0.032l-0.027 0.04-0.05 0.01-0.022 0.02-0.085 0.02-0.018 0.02-0.011 0.02 0.025 0.05-0.013 0.01-0.041-0.03-0.044-0.02h-0.069l0.01 0.01v0.03l-0.027 0.05-0.016-0.02v-0.01l-0.024-0.03-0.078-0.02h-0.037v0.03h0.039l-0.042 0.03-0.067 0.03 0.021 0.05h-0.04l-0.018-0.02-0.019-0.03-0.027-0.02h-0.02l-0.03-0.03 0.01-0.03 0.018-0.04-0.021-0.03-0.036-0.03h-0.061l-0.039 0.02h-0.124l-0.024 0.02-0.028 0.09-0.057 0.04-0.01 0.01-0.075 0.05-0.0003-0.01-0.046-0.05h-0.02l-0.023 0.01-0.039 0.01-0.019 0.01-0.027 0.04-0.01 0.03-0.01 0.01h-0.033l-0.1075 0.657-0.101 0.613-0.054 0.33-0.029 0.18-0.019 0.1-0.4571-0.178-0.1577 0.477-0.8759 0.202-1.0866 0.251h-0.1958l-0.6856 0.06-0.6411 0.1-0.6459 0.105-0.1487 0.02-0.261 0.04-0.0006-0.785-0.7284-0.191-0.1303-0.03 0.064-0.69h-0.1377l-0.1778-0.01-0.8892-0.09-0.045 0.519-0.0008 0.01-0.1138 0.264-0.4293-0.218-0.454-0.227-0.086-0.04h-0.081l-0.1908-0.01 0.01-0.03 0.01-0.01 0.01-0.02 0.01-0.102-0.2019-0.142v-0.103l-0.019-0.06-0.077-0.112-0.1165-0.03-0.519-0.146-0.1373-0.147-0.071-0.126-0.075-0.18-0.01-0.06 0.083-0.33-0.053-0.05-0.4297-0.292-0.1293 0.07-0.3824-0.537-0.4746 0.521-0.01-0.01-0.032-0.02h-0.058l-0.056-0.01-0.011-0.02-0.033-0.04-0.028-0.04-0.012-0.03-0.01-0.03-0.05-0.04-0.028-0.03-0.026-0.04-0.038-0.03-0.023-0.01-0.033 0.03-0.061 0.09-0.061 0.05-0.2728 0.107-0.1487 0.352-0.428 0.09-0.4229-0.144-0.5094-0.287-0.051 0.102-0.218-0.203-0.1175 0.103-0.053 0.07-0.026 0.02-0.093 0.03-0.068 0.02-0.028 0.01h-0.114l-0.054-0.03-0.066-0.06-0.021-0.02-0.039-0.02h-0.166l-0.059-0.02h-0.068l-0.031-0.01-0.021-0.02-0.026-0.03-0.029-0.04-0.019-0.02-0.071-0.07-0.021-0.01-0.023-0.01-0.083-0.03h-0.073l-0.1096 0.03-0.1044-0.01h-0.276l-0.035-0.02-0.04-0.04-0.011-0.03v-0.02l0.01-0.01 0.016-0.01 0.048-0.01 0.026-0.01 0.036-0.04 0.011-0.02-0.0005-0.02-0.011-0.02-0.019-0.02h-0.111l-0.045-0.02-0.028-0.02-0.018-0.01-0.016-0.03-0.059-0.07-0.045-0.08-0.051-0.07-0.024-0.05-0.037-0.05-0.065-0.06-0.07-0.07-0.044-0.03-0.045-0.02-0.1313-0.02-0.064 0.01-0.029 0.02-0.028 0.03-0.017 0.03-0.039 0.04h-0.027l-0.1197-0.02v0.04l-0.01 0.16-0.095 0.03-0.1928 0.17-0.094 0.267-0.1343 0.347-0.1372 0.431-0.024 0.07-0.015 0.05-0.048 0.197-0.014 0.127 0.2932 0.284 0.2332 0.07 0.3785 0.08h0.018l-0.1079 0.558-0.012 0.06-0.6186-0.422-0.2896-0.1-0.4606 0.05h-0.3321l-0.3371 0.09h-0.08l-0.1817-0.02-0.2128-0.04h-0.011l-0.1018-0.01-0.7301-0.05z"/>
 </g>
 <g id="7" transform="matrix(8.7524,0,0,8.7524,-27309,152760)" stroke="#000" stroke-width=".23158" class="black" fill="#fff">
  <title id="title4220">Circoscrizione 7</title>
  <path id="path26" stroke="#000" stroke-width=".23158" fill="#fff" d="m3157.8-17417 0.064 0.03 0.037 0.02 0.693 0.322 0.07 0.03 0.2667 0.125 0.127 0.06 0.225 0.106 0.049 0.02 0.1902 0.09 0.1537 0.07 0.2304 0.108 0.7453 0.35 0.4503 0.211 0.5492 0.233-0.01 0.02-0.049 0.104-0.077 0.152 0.077 0.224 0.02 0.02 0.034 0.02 0.093 0.04 0.029 0.01-0.046 0.1-0.01 0.02-0.01 0.02-0.059 0.128 0.087 0.04 0.025 0.01 0.026 0.01 0.085 0.04 0.1172-0.255 0.1471 0.07h0.034l0.046-0.02 0.1699-0.06 0.1249-0.271 0.2516 0.118 0.2774 0.131 0.2237 0.104 0.3261 0.153 0.604 0.283 0.022 0.03 0.013 0.02 0.026 0.04 0.172 0.271 0.2093 0.289 0.1449 0.2 0.1184 0.164 0.3486 0.494 0.4175 0.597 0.1311 0.188 0.057 0.08 0.2119 0.303 0.1816 0.261 0.09 0.129 0.1362 0.196 0.1966 0.282 0.2013 0.289 0.236 0.338 0.033 0.05 0.2103 0.301 0.049 0.07h0.08l0.16 0.216 0.2048-0.199 0.2972-0.225 0.4449-0.286 0.5753-0.318 0.7137-0.289 0.7326-0.27 0.075-0.03 0.082 0.2 0.081 0.202 0.014 0.02 0.073 0.102 0.332 0.523 0.2193 0.345 0.3597 0.564-0.043 0.02 0.01 0.01 0.1295 0.203 0.011 0.02 0.1939-0.08h0.013l0.083-0.03h0.077l0.1223 0.05 0.2346 0.127 0.023 0.01 0.054 0.03 0.065 0.03 0.1438 0.05 0.1731 0.111 0.035 0.03 0.024 0.02 0.016 0.03 0.014 0.04 0.016 0.101 0.013 0.09-0.01 0.03v0.22l0.01 0.174-0.01 0.06v0.04l0.01 0.03 0.01 0.02 0.01 0.02 0.09 0.204 0.01 0.02h0.01l0.015 0.01 0.1328 0.08 0.024 0.02 0.062 0.07 0.1071 0.09 0.031 0.03 0.032 0.04 0.031 0.06 0.013 0.04 0.021 0.07 0.02 0.07 0.1268 0.185 0.045 0.06 0.03 0.07 0.019 0.03 0.022 0.02 0.022 0.02 0.083 0.04 0.066 0.03 0.067 0.03h0.2095l0.02 0.01 0.014 0.01 0.013 0.02 0.017 0.03 0.01 0.03 0.01 0.03v0.03l-0.0007 0.121 0.01 0.03 0.01 0.02 0.01 0.02 0.016 0.03 0.015 0.02 0.032 0.03 0.041 0.04 0.058 0.05 0.014 0.02 0.014 0.02 0.026 0.04 0.073 0.09 0.042 0.05 0.012 0.01 0.059 0.06 0.04 0.02 0.033 0.03 0.024 0.02 0.027 0.03 0.011 0.02 0.042 0.08 0.012 0.03 0.01 0.03 0.01 0.03 0.038 0.234 0.027 0.09v0.03l-0.023 0.188v0.03l0.018 0.03 0.014 0.02 0.078 0.09 0.042 0.04 0.083 0.08 0.044 0.03 0.061 0.06 0.021 0.03 0.096 0.137 0.01 0.04v0.07l-0.042 0.119-0.028 0.07-0.018 0.04-0.015 0.02-0.025 0.02-0.025 0.02-0.2429 0.09h-0.098l-0.059-0.02-0.081-0.03-0.079-0.03h-0.098l-0.027 0.02v0.02l0.01 0.01 0.01 0.01 0.059 0.06 0.1403 0.121 0.1057 0.1 0.063 0.05 0.031 0.02 0.016 0.01 0.01 0.02v0.04l0.03 0.01h0.022l-0.014 0.183h0.075l-0.068 0.144-0.077 0.148-0.013 0.02 0.099 0.07-0.076 0.103-0.027 0.02-0.041 0.02h-0.013l-0.1117 0.04-0.1136 0.04-0.01 0.01 0.036 0.06 0.036 0.06 0.032 0.05 0.037 0.05 0.013 0.03v0.07l0.021 0.04 0.014 0.1 0.01 0.03 0.061 0.224v0.09l-0.013 0.04-0.013 0.04-0.0008 0.02-0.0007 0.02v0.04l0.012 0.05 0.012 0.05 0.034 0.126 0.062 0.115 0.019 0.03 0.086 0.238 0.045 0.122 0.076 0.147 0.091 0.139 0.01 0.02v0.03l-0.014 0.05-0.01 0.02v0.02l0.032 0.08h0.0009l-0.01 0.01-0.043 0.06-0.047 0.07-0.014 0.04 0.0003 0.03 0.01 0.04 0.01 0.04 0.016 0.07 0.022 0.09 0.023 0.09 0.025 0.102v0.01l-0.033 0.09-0.031 0.08-0.0009 0.04 0.011 0.02 0.01 0.02 0.01 0.02v0.02l-0.01 0.03-0.036 0.05-0.01 0.04-0.01 0.06-0.01 0.01h-0.157l-0.089 0.05h-0.033l-0.059-0.01h-0.032l-0.013 0.02-0.01 0.02-0.021 0.141-0.01 0.113v0.02l0.022 0.437 0.01 0.03 0.013 0.01 0.1145 0.07 0.041 0.03 0.068 0.06h0.056l0.1077-0.05 0.055-0.03h0.039l0.061 0.02h0.017l0.024-0.01 0.019-0.02 0.035-0.06h0.052l0.017 0.01 0.029 0.03h0.112l0.024 0.02 0.01 0.02v0.09l0.01 0.02 0.012 0.02 0.097 0.145 0.1264 0.165 0.034 0.07 0.019 0.05 0.017 0.04 0.019 0.02 0.015 0.01 0.02 0.01 0.1079 0.02 0.076 0.04 0.078 0.04 0.047 0.03 0.053 0.03 0.022 0.01 0.027 0.02 0.035 0.04 0.027 0.04v0.02l-0.01 0.02-0.013 0.02-0.041 0.04-0.023 0.02-0.013 0.01-0.011 0.01-0.01 0.02v0.11l0.017 0.106v0.03l-0.016 0.03-0.022 0.12 0.045 0.03v0.227l-0.0006 0.04 0.0004 0.02 0.01 0.02 0.01 0.02 0.012 0.02 0.014 0.02 0.017 0.02 0.016 0.01h0.01l0.034 0.02 0.071 0.03 0.052 0.01-0.0004 0.01 0.062 0.02 0.067-0.01 0.033-0.02 0.022-0.01 0.085-0.01 0.1423-0.08 0.2288-0.07 0.1612 0.125 0.048 0.01 0.1102-0.01 0.053-0.08 0.015-0.1 0.091-0.06 0.1166-0.11 0.05 0.131 0.016 0.115 0.016 0.03h0.238l0.1129-0.04 0.089-0.03h0.15l0.018-0.01 0.085-0.126 0.019-0.02 0.05-0.03v-0.01l0.044-0.06 0.013-0.02 0.041-0.06 0.01-0.01h0.3029l0.048 0.02 0.011 0.01h0.012l0.1433-0.196 0.01-0.01h0.02l0.2227-0.304 0.02-0.03h0.0002l0.3034-0.413 0.4781-0.59 0.1061-0.13 0.8801-1.075 0.01-0.01 0.01-0.01 0.9755-1.121 0.8201-0.944 0.1906-0.219 0.7693-0.884 1.0841-1.33 1.2058-1.479 0.3714-0.454h0.01l0.1196-0.195 0.6241-1.014 0.3132-0.509 0.1851-0.3 0.024-0.04 0.068-0.118 0.017-0.02 0.012-0.02 0.7656-1.233 1.1319-1.836 0.7194-1.171 0.9352-1.525 0.6318-1.031 0.4299-0.699 0.1172-0.191 0.022-0.03 0.01-0.02-0.098-0.145-0.042-0.04-0.089-0.04-0.1397-0.04h-0.2517l-0.064 0.05-0.022 0.04-0.066 0.04h0.0004l-0.075 0.01h-0.091l-0.2363-0.06h-0.02l-0.049-0.03-0.032-0.02-0.04-0.06-0.029-0.03-0.14-0.04-0.1005-0.05-0.085-0.02-0.2001-0.157-0.084-0.123-0.092-0.182-0.029-0.106-0.011-0.121 0.1144-0.08 0.061-0.02 0.3992-0.136 0.054-0.1-0.042-0.326-0.037-0.06-0.7185 0.344-0.06-0.04-0.084-0.102-0.019-0.02-0.024-0.03-0.033-0.04-0.01-0.01-0.085-0.102-0.1255-0.145-0.061-0.06-0.1377-0.159-0.2115-0.08-0.2263 0.08-0.085 0.02-0.083-0.05h-0.083l-0.1142-0.03h-0.1824l-0.2421 0.05-0.3699 0.06-0.1837 0.01-0.545 0.02-0.074-0.01h-0.1317l-0.1621 0.02-0.1452 0.09-0.036-0.02h-0.093l-0.013-0.01-0.086-0.01-0.028-0.01-0.027-0.05-0.015-0.01-0.022-0.03-0.033-0.02-0.03-0.03-0.056-0.04-0.024-0.01h-0.095l-0.05-0.03-0.043-0.05-0.037-0.02-0.025-0.02v-0.02l-0.033-0.03 0.01-0.02-0.01-0.03-0.031-0.04-0.018-0.01h-0.045l-0.08 0.02-0.095 0.06h-0.099l-0.05-0.03h-0.033l-0.044 0.02h-0.024l-0.048-0.04h-0.031l-0.086-0.02h-0.072l-0.033-0.02h-0.058l-0.052-0.04-0.089-0.03-0.06-0.02-0.067-0.02-0.066-0.06-0.035-0.02-0.04-0.01-0.055 0.03h-0.03l-0.047-0.02-0.015-0.03-0.041-0.06-0.1796-0.134-0.024-0.03-0.026-0.05-0.032-0.04-0.046-0.02-0.06-0.05-0.02-0.09-0.053-0.03-0.043-0.04-0.013-0.06-0.029-0.03-0.036-0.01h-0.044l-0.013-0.03-0.022-0.04-0.045-0.04-0.034-0.06-0.01-0.05-0.01-0.03-0.012-0.03 0.01-0.03 0.01-0.03-0.013-0.01h-0.026l-0.09-0.03-0.025-0.02v-0.03l-0.01-0.05-0.03-0.03-0.035-0.04-0.095-0.04-0.072-0.01-0.035-0.04-0.029-0.06-0.06-0.05-0.02-0.05-0.022-0.03-0.01-0.04 0.018-0.04v-0.03l-0.041-0.03-0.036-0.02-0.024-0.03-0.01-0.05 0.01-0.07v-0.03l0.015-0.07 0.015-0.04v-0.05l-0.033-0.08-0.01-0.03-0.021-0.03-0.052-0.01h-0.054l-0.031-0.01-0.022-0.03-0.02-0.04-0.078-0.09-0.056-0.09-0.028-0.03h-0.111l-0.044-0.01-0.031-0.03-0.01-0.02-0.024-0.03-0.035-0.05-0.022-0.05-0.065-0.04-0.017-0.09-0.016-0.02-0.035-0.03-0.013-0.02v-0.02l0.021-0.08-0.011-0.04-0.016-0.02-0.036-0.08-0.033-0.05-0.014-0.07-0.026-0.06-0.01-0.05v-0.02l0.01-0.08-0.0006-0.03-0.01-0.01-0.01-0.02-0.034-0.06-0.1478-0.154-0.1777-0.193-0.166-0.211-0.3698 0.25-0.3678 0.13-0.3386 0.02h-0.5609l-0.295-0.01h-0.2819l-0.9017-0.294-1.3597-0.676-0.072-0.03-0.045-0.02-0.6756-0.359-0.5199-0.134-0.5047 0.05-0.4154 0.194-0.48 0.53-0.264 0.367-0.053 0.121-0.099 0.224-0.044 0.1-0.1662 0.691-0.045 0.321-0.3173-0.03h-0.091l-0.6647 0.685-0.8335 0.851-0.3107 0.28-0.1469 0.09-0.019 0.01-0.6475 0.412h-0.077l-0.028 0.04-0.053 0.04-1.9195 1.217-1.6238 1.017-0.3736-0.596-0.03-0.05-0.096-0.149-0.097-0.153-0.2711-0.429-0.1436-0.228-0.1317-0.209-0.2623-0.413-0.2067-0.323-0.051-0.08-0.032-0.05-0.058-0.06-0.063-0.04-0.2606-0.205-0.3848-0.305-0.1439-0.112-0.305-0.238-0.099-0.08-0.092-0.07-0.1328-0.104-0.09-0.07-0.1058-0.07-0.073-0.06-0.09-0.07-0.3516-0.238-0.1819-0.123-0.039-0.03-0.1511-0.09-0.2165-0.03-0.3888-0.06-0.4043-0.07-0.6004-0.1-0.4202-0.07-0.452-0.08-0.094-0.01-0.1396-0.02-0.3304-0.06-0.3173-0.05-0.137 0.14-0.1227 0.127-0.121 0.106-0.2605 0.547-0.082 0.17-0.022 0.05-0.045 0.09-0.06-0.05-0.3713 0.748-0.107 0.215-0.1712 0.345-0.1627 0.329-0.2002 0.404-0.149 0.301-0.1452 0.295-0.1537 0.318z"/>
 </g>
 <g id="8">
  <title id="title4163">Circoscrizione 8</title>
  <path id="path37" d="m443.44 371.59-0.65625 0.26172-6.4121 2.3633-6.248 2.5293-5.0352 2.7832-3.8926 2.5039-2.6016 1.9688-1.793 1.7422-4.2559 4.3594-1.9609 2.0215-0.18359 0.17383-0.15625 0.17578-4.5352 4.6836-0.68359 0.91015-3.4258 4.5332-3.0742 4.6914-4.7285 8.1309-0.1914 0.4375-1.8164-0.9375-1.8652-1.0137-4.5059-2.3203-3.0938-1.5664-1.334-0.61328-4.7363-2.3984-4.1914-2.1348-3.4121-1.7422-3.5234-1.793-1.2402-0.61328-2.1074-1.0684-2.4355-1.2422-1.9043-0.97265-1.8262 3.3262-1.3672 2.8105-1.8457 3.5801-2.0879 4-0.92969 2.4766-0.70898 2.582-1.418-0.52539-4.7871 9.2773-0.19336 0.34961-2.4356 2.627-1.3945 2.1602-0.375 0.70117h0.0957l-0.61328 0.9707-0.84766-0.4375 0.0859 0.4375-1.8398 4.0977-1.0469 1.9863-0.38476 0.98047-5.209 11.684-3.4219 7.6934-2.6758 6.1172-3.5039 8.0625-0.46875 1.0039-0.46094-0.2832-0.16796-0.0879-0.006-0.0391-0.0117 0.0254-5.627-4.791-7.9043-6.7559-3.332 4.2012-2.4219 3.0625-7.5801 9.5664-4.418 5.5762-0.39453 0.4375-0.12304 0.17383-2.1309 2.7227-1.4062 1.7773-0.4043 0.52344-2.7324 3.4668-1.25 1.5938-0.86719 1.1543-0.79688 0.98047-5.2305 6.7051-2.2227 2.8535-3.3809 4.332-2.6992 3.457-1.6973 2.1797-1.6856 2.1523-2.9141 3.7383-0.75196 0.69922-2.8301 3.4219-3.293 4.1582-4.4941 5.7402-3.0039 3.9141-2.1543 2.7031-2.0391 2.5469-2.0859 2.6348-2.4726 3.2031-3.957 4.8398-1.8672 2.4609-1.1074 1.3828-1.4121 1.8281-0.63282 0.85742-2.7246 2.4082 2.8555 1.3476 3.4199 1.6973 3.8516 1.9004 0.44726 0.26172 4.4473 2.2051 0.42773 0.17578 0.69141 0.78711 1.9062 2.0566 2.4316 2.627 5.0234 5.4258 0.51758 0.4375 3.5137 1.2266 2.6836 0.78711 3.8984 1.1367 3.0938 0.91016h0.48242l0.1582-0.96094 1.5488-3.834 1.8887-4.6562 3.6191-9.4785 2.9316 1.4688 0.5332 0.26367 3.5234 1.7676 5.7051 2.8613 5.709 2.8633 0.54297 0.17383 1.6328 0.52539 2.4316 0.88477 0.14063 1.8203 0.42968 2.5469 0.67383 2.9414 0.14844 0.52539 0.0879 0.26172 0.20898 0.875 1.1524 4.6133 4.5976-0.52539 2.1172-0.26367 5.7402-0.69922 3.1719-0.34961 2.5332-0.26367 1.1992-0.17383h0.0859l10.289-0.70117 5.9414-0.4375 3.4766 0.61328 3.4766 0.61133 1.002 0.17578 0.875 0.17578 5.9785 1.0312 0.24414 0.043 1.2598 1.5117 2.8184 0.4375h0.45508l1.0644 0.17578 3.623-4.7793 1.0176-1.3223 0.84961-0.34961 0.21875-0.26368 0.14844-0.17382 1.1094-0.9375 1.1094-0.92774 0.30469-0.4375 0.97851-1.207 0.0879-0.26367 0.20899-1.6191 1.0352-1.627 0.14843-1.9434 0.26368-0.61329 0.33984-0.61132 0.24609-0.26368 0.61328-0.3496 0.61133-0.34961 0.29883-0.52539 0.16602-0.4375 0.16601-0.4375 0.11328-0.17579 0.0879-0.17578 0.17578-0.4375 0.10352-0.26172 0.0879-0.17578v-0.0859-0.17579-0.17578l0.006-0.17383v-0.26367-0.26172h0.004 0.004l0.0879-0.0879 0.12305-0.17578-0.14844-0.17383-0.41211-0.61328 0.29688-1.75 0.42969-0.4375 0.73437-0.0879 3.3887-5.4785 3.6465-2.8984 5.8535-2.4238 3.2578 0.17578h0.81446l1.5625-0.26367 2.9434-0.26172h0.27148l0.47266 0.0879 0.61328 0.17383 1.0293 0.4375 0.67382 0.26367 0.38477 0.26172 0.55273 0.26367 1.6367 0.875h0.15625l0.63867 0.26172 1.6875 0.26367 1.457 0.26172 1.1309 0.26367 0.34179 0.0859 1.3496 0.52539 1.8652 1.2168 1.0957 0.52539 2.0879 1.3301 0.28906 0.34961 0.30664-0.52344 0.82227-0.35156 0.89258-0.0879 1.166 0.0879 2.0254-0.0879 0.50782 0.26367 0.71875 0.26172 0.41015 0.0879 0.44727-0.34961 1.7148-0.52539 3.1094-0.4375 1.4922-0.70117 0.66602-2.3281h0.002l0.14844 0.0879 0.62109 0.17578h0.24414 0.21094 0.41992 0.10547l0.20899 0.4375 0.26367 0.17578 0.32422 0.0859h0.49804l0.54297 0.26367h0.31446l0.83984-0.78906 0.91211-0.26172h0.41211 0.27148 0.9336l0.49023 0.0879h0.3418 0.2793l0.23632-0.0879h0.36719l0.32422-0.0879 0.52539 0.17578h0.17578 0.11328l0.0879-0.17578 0.0879-0.17383 0.13086-0.0879h0.1211l0.10547-0.0879h0.18359l0.19336-0.0879 0.27148-0.0879h0.0957 0.10547l0.0879-0.17383h0.0957l0.1582 0.0879h0.11328 0.0879 0.20899l0.0976 0.0859h0.39258l0.19336 0.0879h0.17578 0.13868 0.21093l0.20117-0.0879 0.2793 0.0879h0.12305 0.20117 0.17578 0.24414 0.27149 0.1582 0.21875 0.17383l0.28125 0.17578 0.35742 0.17383 0.16797 0.17578h0.15625l0.36914 0.17578 0.28711 0.0879h0.19336 0.14843 0.26368 0.14843l0.2793-0.0879h0.31445 0.28125 0.23633 0.41992 0.63086 0.1211l0.0976-0.0879h0.13086 0.26172 0.21094 0.42773 0.26368l0.1914 0.0879 0.32422 0.34961 0.3418 0.17578v-0.0879l1.0586-9.7949 0.3418-3.2637 0.23633-0.0879 6.2617-2.9414 0.28124-0.17382h0.13868 0.14062l8.5117-3.2207 2.1543-0.78906 2.4785-0.9707 3.3848-1.3652 3.0254-1.2695 4.1582-1.8301 4.4492-1.8457 8.9121-3.7461h0.20117l8.3223-7.6934 5.4707-5.0234 5.334-4.9629 8.8164-8.1934 2.6074-2.4141 0.31446-0.4375 3.8809-5.3047h-0.10352l-0.0977-0.0879-0.41992-0.17578h-0.13086-1.3965-1.123l-0.0879 0.0879-0.35937 0.52539-0.11328 0.17578-0.38477 0.52539v0.0859l-0.4375 0.26367-0.16602 0.17578-0.74414 1.1016-0.1582 0.0879h-0.0879-0.0879-0.42774-0.34961-0.18554-0.0859-0.0879l-0.7793 0.26172-0.98828 0.35157h-0.10547-0.18359-0.44531-0.11524-0.17383-0.0879-0.0879-0.22656-0.13281-0.52344l-0.14062-0.26368-0.14063-1.0059-0.4375-1.1465-1.0195 0.96289-0.79688 0.52539-0.13086 0.875-0.46484 0.69922-0.96484 0.0879-0.41992-0.0879-1.4102-1.0938-2.002 0.61328-1.2461 0.69922-0.74414 0.0879-0.19336 0.0879-0.28906 0.17383-0.58594 0.0879-0.54297-0.17383 0.004-0.0879-0.45508-0.0879-0.62109-0.26172-0.29883-0.17578h-0.0859l-0.14062-0.0879-0.14844-0.17383-0.12305-0.17578-0.10547-0.17578-0.0879-0.17383-0.0859-0.17578-0.004-0.17578 0.004-0.34961v-0.34961-0.34961-1.2871l-0.39453-0.26172 0.19335-1.0508 0.14063-0.26367v-0.26172l-0.14844-0.92773v-0.52539-0.26172-0.17578l0.0859-0.17579 0.0977-0.0859 0.11328-0.0879 0.20117-0.17579 0.35937-0.3496 0.11328-0.17579 0.0879-0.17382v-0.17579l-0.23633-0.3496-0.30664-0.34961-0.23633-0.17579-0.19336-0.0879-0.46289-0.26171-0.41211-0.26368-0.68164-0.34961-0.66602-0.34961-0.94336-0.17578-0.17578-0.0879-0.13086-0.0879-0.16601-0.17383-0.15039-0.34961-0.16602-0.4375-0.29687-0.61328-1.1074-1.4453-0.84765-1.2676-0.10547-0.17578-0.0879-0.17578v-0.26172-0.34961-0.17578l-0.0879-0.17578-0.20899-0.17383h-0.11328-0.0879-0.49023-0.19336-0.0957l-0.2539-0.26367-0.14844-0.0859h-0.14844-0.16601-0.14063l-0.30664 0.52539-0.16601 0.17383-0.21094 0.0879h-0.14844l-0.5332-0.17578h-0.17578-0.16602l-0.48047 0.26367-0.94336 0.4375h-0.14843-0.1836-0.1582l-0.5957-0.52539-0.35938-0.26367-1.002-0.61133-0.11328-0.0879-0.0879-0.26172-0.19141-3.8262v-0.17383l0.0879-0.99023 0.18359-1.2344 0.0859-0.17383 0.11524-0.17578h0.13867 0.14062l0.51758 0.0879h0.12109 0.16602l0.7793-0.4375h0.21094 0.27929 0.21094 0.33203 0.20117 0.14063l0.0879-0.0879 0.0859-0.52539 0.0879-0.34961 0.31445-0.4375 0.0879-0.26367v-0.17383l-0.0879-0.17578-0.0859-0.17383-0.0976-0.17578 0.008-0.34961 0.27148-0.70117 0.28907-0.78711v-0.0879l-0.21876-0.89258-0.20117-0.78711-0.1914-0.78906-0.14063-0.61133-0.0879-0.35156-0.0879-0.34961-0.002-0.26172 0.12109-0.34961 0.41211-0.61328 0.37695-0.52539 0.0879-0.0879h-0.008l-0.28125-0.69922v-0.17578l0.0879-0.17578 0.12305-0.4375v-0.17383-0.0879l-0.0879-0.17578-0.79688-1.2168-0.66601-1.2852-0.39258-1.0684-0.75391-2.084-0.16601-0.26172-0.54297-1.0059-0.29688-1.1035-0.10546-0.4375-0.10352-0.4375v-0.17578-0.17383l0.006-0.17578 0.006-0.17578 0.11328-0.34961 0.11523-0.34961v-0.17578-0.34961-0.26172l-0.53515-1.9609-0.0859-0.26367-0.12305-0.875-0.18359-0.34961v-0.4375-0.17578l-0.11523-0.26172-0.32227-0.4375-0.28125-0.4375-0.31445-0.52539-0.31446-0.52539 0.0859-0.0879 0.99414-0.34961 0.97852-0.34961h0.11328l0.35937-0.17578 0.23633-0.17578 0.66602-0.90039-0.86719-0.61328 0.11328-0.17383 0.67383-1.2969 0.5957-1.2598h-0.65625l0.12305-1.6016h-0.19336l-0.26172-0.0879v-0.34961l-0.0879-0.17578-0.14062-0.0859-0.27149-0.17578-0.55078-0.4375-0.92578-0.875-1.2285-1.0605-0.51562-0.52344-0.0879-0.0879-0.0879-0.0879v-0.0879-0.0879l0.23632-0.17383h0.12305 0.14063 0.0879 0.11328 0.17578 0.21875l0.69141 0.26172 0.70898 0.26367 0.51563 0.17383h0.23632 0.24414 0.18555 0.19141l2.127-0.78711 0.21875-0.17578 0.21875-0.17383 0.13086-0.17578 0.1582-0.34961 0.24414-0.61328 0.36719-1.041v-0.17578-0.17383-0.26367l-0.0879-0.34961-0.83984-1.1992-0.1836-0.26172-0.5332-0.52539-0.38477-0.26367-0.72656-0.69922-0.36719-0.34961-0.68359-0.78906-0.12305-0.17383-0.15625-0.26367v-0.26172l0.20118-1.6465v-0.26172l-0.23633-0.78711-0.33399-2.0488-0.0859-0.26367-0.0879-0.26172-0.10547-0.26172-0.36719-0.70117-0.0977-0.17578-0.23633-0.26172-0.20898-0.17578-0.28906-0.26172-0.34961-0.17578-0.51758-0.52539-0.10352-0.0859-0.36914-0.4375-0.63867-0.78906-0.22656-0.34961-0.12305-0.17578-0.12304-0.17383-0.50782-0.4375-0.35742-0.34961-0.28125-0.26367-0.13086-0.17578-0.14062-0.26172-0.0859-0.17578-0.0879-0.17383-0.0879-0.26367 0.006-1.0586v-0.26172l-0.0879-0.26367-0.0879-0.26172-0.14844-0.26367-0.11328-0.17383-0.12305-0.0879-0.17383-0.0879h-0.20117-0.25391-0.24609-1.1328l-0.58594-0.26172-0.57812-0.26367-0.72657-0.34961-0.19336-0.17578-0.1914-0.17383-0.16602-0.26367-0.26367-0.61133-0.39453-0.52539-1.1094-1.6191-0.17382-0.61328-0.18555-0.61328-0.11328-0.34961-0.27149-0.52539-0.27929-0.34961-0.27149-0.26172-0.9375-0.78906-0.54297-0.61133-0.20898-0.17578-1.1621-0.70117-0.13281-0.0859h-0.0859l-0.0879-0.17578-0.78906-1.7852-0.0859-0.17578-0.0879-0.17383-0.0879-0.26367v-0.34961l0.0879-0.52539-0.0879-1.5234v-0.34961-0.78711-0.78906l0.0879-0.26172-0.11328-0.78711-0.14063-0.88476-0.12304-0.34961-0.14063-0.26367-0.20898-0.17383-0.30665-0.26367-1.5156-0.97071-1.2578-0.4375-0.56836-0.26367-0.47266-0.26172-0.20117-0.0879-2.0547-1.1113-1.0703-0.4375h-0.67383l-0.72656 0.26172h-0.11328l-1.6973 0.70118-0.0957-0.17579-1.1348-1.7754-0.0859-0.0879 0.375-0.17578-3.1484-4.9356-1.918-3.0195-2.9062-4.5781-0.63867-0.89258-0.12305-0.17578-0.70898-1.7676-0.7168-1.75z" stroke="#000" stroke-width="2.0269" fill="#fff"/>
 </g>
 <g id="4" transform="matrix(8.7524,0,0,8.7524,-27307,152760)" stroke="#000" stroke-width=".23158" class="black" fill="#fff">
  <title id="title4226">Circoscrizione 4</title>
  <path id="path38" stroke="#000" stroke-width=".23158" fill="#fff" d="m3134.9-17414-0.027 0.05 0.1708-0.01 0.2507-0.01 0.2773-0.02h0.2726l0.2825-0.02 0.3021-0.02 0.2966-0.02 1.0633-0.06 0.1998-0.01 1.1237-0.06h0.018l0.2732-0.02h0.048l0.3028-0.02 0.3082-0.02 0.3346-0.02 0.2503-0.01 0.6618-0.04 1.0455-0.06 0.6308-0.04 0.4143-0.02 0.4458-0.03 0.3464-0.02h0.096l0.2373-0.01 0.2207-0.01 0.2575-0.01 0.3446-0.02 0.3065-0.02 0.4663-0.03 0.5318-0.03 0.2699-0.01 0.75-0.04h0.3682l0.3945-0.02 0.6124-0.03 0.3075-0.02 0.2527-0.01h0.09l0.1833-0.01 0.1779-0.01 0.3243-0.02 0.2305-0.01 0.4849-0.03 0.2339-0.01 0.4378-0.02 0.3708-0.02 0.4145-0.02 0.3128-0.02 0.1947-0.01 0.3164-0.02 0.4594-0.03 0.4356-0.02 0.3933-0.02 0.2735-0.01 0.1746-0.01 0.3244-0.02h0.1568l0.2253-0.01 0.4044-0.02 0.4746-0.03h0.039l0.026-0.05 0.1031-0.189 0.124-0.229 0.1077-0.198 0.042-0.08 0.099-0.198 0.1422-0.287 0.1835-0.369 0.096-0.195 0.1539-0.31 0.2414-0.486 0.1537-0.318 0.1452-0.295 0.149-0.301 0.2002-0.404 0.1627-0.329 0.1712-0.345 0.107-0.215 0.3713-0.748 0.06 0.05 0.045-0.09 0.022-0.05 0.082-0.17 0.2605-0.547 0.121-0.106-0.4088-0.181-1.5463-0.299-0.4798-0.09-0.2025 0.03-0.365-0.1-0.5194-0.1-0.1406-0.03-0.3263-0.06-0.6177-0.12-0.5294-0.104-0.048-0.01h-0.054l-0.01-0.112h-0.2353l-1.4914 0.129-0.2474 0.02-0.1363 0.01-0.3079 0.03-0.3435 0.03-0.027 0.05-0.155-0.148-0.027 0.05-0.093 0.196-0.084 0.18-0.016 0.03-0.1142 0.239-0.1411 0.301-0.243 0.512-0.1769 0.376-0.033 0.07-0.095 0.197-0.1138-0.05-0.2284-0.107-1.687-0.788-0.7321-0.343-2.5937-1.215-0.6979-0.327-0.6224-0.292-0.6146-0.343-1.4798-0.827-0.2997-0.167-0.8033-0.449-0.1345-0.07-0.8061-0.452-0.5132-0.288-0.7573-0.423-0.7406 0.148h-0.01l0.1294 0.133 0.9475 0.949 0.054 0.05 0.055 0.06 0.1733 0.174 0.3424 0.791-0.031 0.116-0.031 0.114-0.016 0.06-0.071 0.261-0.079 0.307-0.01 0.03-0.2033 0.645v0.09l0.01 0.04v0.06l-0.01 0.08-0.018 0.08-0.01 0.02-0.016 0.06-0.047 0.09-0.017 0.03-0.01 0.02-0.016 0.02-0.01 0.01-0.018 0.03-0.014 0.02-0.034 0.02-0.01 0.02-0.021 0.03-0.057 0.07-0.081 0.09-0.5274 0.479-0.092 0.125-0.046 0.05-0.1673 0.08h-0.168l-0.2316-0.02-0.085 0.01-0.07 0.02-0.031 0.04-0.093 0.263-0.1381 0.248-0.083 0.126-0.24 0.324-0.1585 0.219-0.027 0.168v0.173l0.032 0.458 0.056 0.311 0.011 0.752-0.014-0.01-0.014-0.02v0.01l-0.047 0.1-0.1377 0.288-0.013 0.03-0.013 0.04-0.3672 0.78-0.2154 0.455-0.1099 0.231-0.034 0.07-0.033 0.07-0.061 0.125-0.1459 0.312-0.1542 0.327-0.038 0.08-0.01 0.01-0.1518 0.324-0.083 0.17-0.081 0.165-0.01 0.01-0.011 0.02-0.01 0.02-0.2186 0.477-0.021 0.04z"/>
 </g>
</svg>
